<?xml version="1.0" encoding="UTF-8" standalone="no"?>
<svg
   xmlns:dc="http://purl.org/dc/elements/1.1/"
   xmlns:cc="http://creativecommons.org/ns#"
   xmlns:rdf="http://www.w3.org/1999/02/22-rdf-syntax-ns#"
   xmlns:svg="http://www.w3.org/2000/svg"
   xmlns="http://www.w3.org/2000/svg"
   xmlns:sodipodi="http://sodipodi.sourceforge.net/DTD/sodipodi-0.dtd"
   xmlns:inkscape="http://www.inkscape.org/namespaces/inkscape"
   version="1.0"
   width="512px"
   height="512px"
   viewBox="0 0 5120 5120"
   preserveAspectRatio="xMidYMid meet"
   id="svg3393"
   inkscape:version="0.91 r13725"
   sodipodi:docname="logo-white.svg">
  <metadata
     id="metadata3410">
    <rdf:RDF>
      <cc:Work
         rdf:about="">
        <dc:format>image/svg+xml</dc:format>
        <dc:type
           rdf:resource="http://purl.org/dc/dcmitype/StillImage" />
        <dc:title></dc:title>
      </cc:Work>
    </rdf:RDF>
  </metadata>
  <defs
     id="defs3408" />
  <sodipodi:namedview
     pagecolor="#00ffff"
     bordercolor="#666666"
     borderopacity="1"
     objecttolerance="10"
     gridtolerance="10"
     guidetolerance="10"
     inkscape:pageopacity="0"
     inkscape:pageshadow="2"
     inkscape:window-width="1600"
     inkscape:window-height="836"
     id="namedview3406"
     showgrid="false"
     inkscape:zoom="0.89355095"
     inkscape:cx="59.023569"
     inkscape:cy="224.01887"
     inkscape:window-x="0"
     inkscape:window-y="27"
     inkscape:window-maximized="1"
     inkscape:current-layer="svg3393" />
  <g
     id="layer1"
     transform="matrix(1.1693459,0,0,1.1693459,-246.57407,-246.81225)"
     style="fill:#ffffff;stroke:none">
    <path
       d="m 2430,4439 c -312,-25 -592,-117 -768,-253 -105,-80 -134,-123 -174,-256 -25,-83 -35,-375 -19,-530 17,-162 36,-279 47,-290 17,-17 112,42 139,87 l 24,40 -16,149 c -40,361 -7,552 110,640 109.5641,60.0896 286.9993,182.4807 409,184 11,0 46,15 77,34 83,51 212,108 335,150 60,20 117,41 125,46 19,11 -148,11 -289,-1 z"
       id="path3396"
       inkscape:connector-curvature="0"
       sodipodi:nodetypes="ccccsscccccccc"
       style="fill:#ffffff;fill-opacity:0.59322035" />
    <path
       d="m 3230,4379 c -568,-55 -945,-212 -1159,-483 -102,-130 -119,-184 -81,-263 10,-22 42,-99 70,-169 143,-359 175,-434 266,-619 46,-93 107,-210 136,-260 l 52,-90 9,35 c 77,328 274,589 522,692 195,80 404,75 583,-17 68,-34 108,-64 183,-137 100,-96 132,-138 192,-248 41,-76 97,-235 97,-276 1,-84 204,481 220,612 52,415 29,842 -53,1009 -48,98 -120,139 -315,181 -161,34 -536,51 -722,33 z"
       id="path3398"
       inkscape:connector-curvature="0"
       style="fill:#ffffff;fill-opacity:0.59322035" />
    <path
       d="m 1895,3217 c -44,-18 -118,-58 -165,-89 -127,-83 -151,-94 -330,-141 -149,-40 -776,-197 -842,-211 -72,-16 -188,-200 -244,-386 -39,-133 -43,-150 -55,-235 -21,-154 -22,-166 -11,-188 5,-12 13,-29 15,-38 4,-12 22,-19 59,-24 29,-3 91,-13 138,-21 310,-52 486,-74 583,-74 51,0 175,-9 277,-21 l 185,-21 165,-80 c 91,-44 184,-89 207,-101 l 43,-20 44,24 c 24,13 45,29 47,34 2,6 -43,41 -100,78 -57,38 -100,72 -95,77 5,4 68,27 139,50 72,23 158,51 191,62 l 62,20 78,-41 77,-41 46,27 c 125,72 124,71 116,111 -3,21 -12,100 -18,177 l -12,140 -47,65 c -100,140 -238,390 -318,575 -11,28 -25,59 -30,70 -17,37 -47,110 -76,182 -16,40 -33,73 -39,73 -5,-1 -46,-15 -90,-33 z M 568,2153 c 86,-26 160,-51 163,-55 4,-7 -12,-95 -27,-146 -2,-7 -32,-26 -66,-42 l -63,-29 -120,45 c -66,25 -124,50 -129,54 -5,5 -5,43 -1,85 5,60 12,82 32,105 14,17 31,30 40,30 8,0 85,-21 171,-47 z"
       id="path3400"
       inkscape:connector-curvature="0"
       style="fill:#ffffff;fill-opacity:0.59322035" />
    <path
       d="m 3259,3205 c -3,-2 -23,-7 -45,-9 -100,-13 -237,-91 -348,-199 -130.3923,-140.6762 -187.3677,-312.6829 -247,-464 -22,-60 -37,-240 -28,-361 26.3865,-284.4769 193.2426,-623.7063 434,-760 102,-51 145,-66 230,-77 21,-3 41,-8 43,-10 8,-7 2,-184 -8,-236 -18,-97 -60,-219 -85,-247 -2,-2 -17,4 -34,12 l -30,16 23,52 c 31,71 57,177 63,262 l 5,71 -48,13 c -170,47 -231,77 -334,164 -115,97 -211,230 -256,355 -14,37 -28,71 -33,76 -5,5 -148,-75 -319,-177 -171,-102 -314,-186 -318,-186 -4,0 -59,25 -121,55 -62,30 -165,80 -228,111 l -116,56 -40,-28 c -62,-43 -151,-144 -187,-213 -176,-339 100,-737 783,-1128 92,-53 174,-67 331,-60 213,11 413,59 609,147 33,15 86,37 119,50 240,95 401,380 423,747 l 6,112 36,12 c 106,34 252,144 335,252 158,208 234,486 208,765 -6,70 -15,141 -21,157 -5,17 -17,57 -27,90 -26,86 -98,229 -149,294 -56,72 -139,152 -190,183 -60,36 -183,85 -243,97 -53,11 -185,15 -193,6 z"
       id="path3402"
       inkscape:connector-curvature="0"
       sodipodi:nodetypes="ccccccccccccccccccssssccccccccccccccccccc"
       style="fill:#ffffff;fill-opacity:0.59322035" />
    <path
       d="m 4340,2731 c 0,-11 -4,-23 -10,-26 -5,-3 -10,-14 -10,-23 -1,-9 -9,-35 -20,-57 -11,-22 -19,-44 -20,-48 0,-13 -90,-195 -121,-247 -22,-37 -28,-62 -34,-140 -26,-387 -199,-685 -487,-844 l -68,-37 0,-63 c 0,-128 -63,-400 -96,-413 -22,-8 -17,-19 16,-33 28,-12 32,-10 92,41 255,218 499,488 662,734 103,155 142,226 241,430 l 87,180 -17,90 c -10,50 -21,95 -24,100 -4,6 -17,42 -30,80 -29,85 -131,287 -148,293 -8,2 -13,-5 -13,-17 z"
       id="path3404"
       inkscape:connector-curvature="0"
       style="fill:#ffffff;fill-opacity:0.59322035" />
  </g>
</svg>
